<mxfile host="app.diagrams.net" agent="Mozilla/5.0 (X11; Linux x86_64; rv:136.0) Gecko/20100101 Firefox/136.0" version="28.0.7">
  <diagram name="Página-1" id="me6CEGMhPLFkG5nNzbAP">
    <mxGraphModel dx="868" dy="471" grid="1" gridSize="10" guides="1" tooltips="1" connect="1" arrows="1" fold="1" page="1" pageScale="1" pageWidth="827" pageHeight="1169" math="0" shadow="0">
      <root>
        <mxCell id="0" />
        <mxCell id="1" parent="0" />
        <mxCell id="KG4UsnsVIqzl79UaUX_7-1" value="Usuario" style="shape=umlActor;verticalLabelPosition=bottom;verticalAlign=top;html=1;outlineConnect=0;" vertex="1" parent="1">
          <mxGeometry x="260" y="60" width="30" height="60" as="geometry" />
        </mxCell>
        <mxCell id="KG4UsnsVIqzl79UaUX_7-5" value="" style="endArrow=none;dashed=1;html=1;dashPattern=1 3;strokeWidth=2;rounded=0;" edge="1" parent="1" target="KG4UsnsVIqzl79UaUX_7-1">
          <mxGeometry width="50" height="50" relative="1" as="geometry">
            <mxPoint x="275" y="719" as="sourcePoint" />
            <mxPoint x="440" y="230" as="targetPoint" />
          </mxGeometry>
        </mxCell>
        <mxCell id="KG4UsnsVIqzl79UaUX_7-6" value="Dados do churrasco" style="rounded=0;whiteSpace=wrap;html=1;" vertex="1" parent="1">
          <mxGeometry x="414" y="60" width="120" height="60" as="geometry" />
        </mxCell>
        <mxCell id="KG4UsnsVIqzl79UaUX_7-7" value="Métodos de calculo" style="rounded=0;whiteSpace=wrap;html=1;" vertex="1" parent="1">
          <mxGeometry x="610" y="60" width="120" height="60" as="geometry" />
        </mxCell>
        <mxCell id="KG4UsnsVIqzl79UaUX_7-8" value="" style="endArrow=none;dashed=1;html=1;dashPattern=1 3;strokeWidth=2;rounded=0;entryX=0.5;entryY=1;entryDx=0;entryDy=0;" edge="1" parent="1" source="KG4UsnsVIqzl79UaUX_7-11" target="KG4UsnsVIqzl79UaUX_7-6">
          <mxGeometry width="50" height="50" relative="1" as="geometry">
            <mxPoint x="474" y="726" as="sourcePoint" />
            <mxPoint x="440" y="190" as="targetPoint" />
          </mxGeometry>
        </mxCell>
        <mxCell id="KG4UsnsVIqzl79UaUX_7-9" value="" style="endArrow=none;dashed=1;html=1;dashPattern=1 3;strokeWidth=2;rounded=0;entryX=0.5;entryY=1;entryDx=0;entryDy=0;" edge="1" parent="1" source="KG4UsnsVIqzl79UaUX_7-13">
          <mxGeometry width="50" height="50" relative="1" as="geometry">
            <mxPoint x="669.5" y="726" as="sourcePoint" />
            <mxPoint x="669.5" y="120" as="targetPoint" />
          </mxGeometry>
        </mxCell>
        <mxCell id="KG4UsnsVIqzl79UaUX_7-12" value="" style="endArrow=none;dashed=1;html=1;dashPattern=1 3;strokeWidth=2;rounded=0;entryX=0.5;entryY=1;entryDx=0;entryDy=0;" edge="1" parent="1" target="KG4UsnsVIqzl79UaUX_7-11">
          <mxGeometry width="50" height="50" relative="1" as="geometry">
            <mxPoint x="474" y="726" as="sourcePoint" />
            <mxPoint x="474" y="120" as="targetPoint" />
          </mxGeometry>
        </mxCell>
        <mxCell id="KG4UsnsVIqzl79UaUX_7-11" value="" style="rounded=0;whiteSpace=wrap;html=1;" vertex="1" parent="1">
          <mxGeometry x="469" y="210" width="10" height="210" as="geometry" />
        </mxCell>
        <mxCell id="KG4UsnsVIqzl79UaUX_7-14" value="" style="endArrow=none;dashed=1;html=1;dashPattern=1 3;strokeWidth=2;rounded=0;entryX=0.5;entryY=1;entryDx=0;entryDy=0;" edge="1" parent="1" target="KG4UsnsVIqzl79UaUX_7-13">
          <mxGeometry width="50" height="50" relative="1" as="geometry">
            <mxPoint x="669.5" y="726" as="sourcePoint" />
            <mxPoint x="669.5" y="120" as="targetPoint" />
          </mxGeometry>
        </mxCell>
        <mxCell id="KG4UsnsVIqzl79UaUX_7-13" value="" style="rounded=0;whiteSpace=wrap;html=1;" vertex="1" parent="1">
          <mxGeometry x="665" y="420" width="10" height="210" as="geometry" />
        </mxCell>
        <mxCell id="KG4UsnsVIqzl79UaUX_7-17" value="" style="endArrow=classic;html=1;rounded=0;entryX=0.25;entryY=0;entryDx=0;entryDy=0;" edge="1" parent="1" target="KG4UsnsVIqzl79UaUX_7-11">
          <mxGeometry width="50" height="50" relative="1" as="geometry">
            <mxPoint x="280" y="210" as="sourcePoint" />
            <mxPoint x="340" y="210" as="targetPoint" />
          </mxGeometry>
        </mxCell>
        <mxCell id="KG4UsnsVIqzl79UaUX_7-18" value="&lt;span style=&quot;background-color: rgb(255, 255, 255); padding: 0px 0px 0px 2px;&quot;&gt;&lt;span style=&quot;color: rgb(51, 51, 51); background-color: rgb(255, 255, 255); font-family: &amp;quot;Monospace&amp;quot;; font-size: 10pt; white-space: pre;&quot;&gt;&lt;span style=&quot;text-decoration: underline rgb(0, 102, 204); color: rgb(0, 102, 204);&quot;&gt;(&quot;h2o&quot;,800,500)&lt;/span&gt;&lt;/span&gt;&lt;/span&gt;" style="edgeLabel;html=1;align=center;verticalAlign=middle;resizable=0;points=[];" vertex="1" connectable="0" parent="KG4UsnsVIqzl79UaUX_7-17">
          <mxGeometry x="-0.154" relative="1" as="geometry">
            <mxPoint as="offset" />
          </mxGeometry>
        </mxCell>
        <mxCell id="KG4UsnsVIqzl79UaUX_7-22" value="" style="endArrow=classic;html=1;rounded=0;entryX=0.25;entryY=0;entryDx=0;entryDy=0;" edge="1" parent="1">
          <mxGeometry width="50" height="50" relative="1" as="geometry">
            <mxPoint x="473" y="420" as="sourcePoint" />
            <mxPoint x="665" y="420" as="targetPoint" />
          </mxGeometry>
        </mxCell>
        <mxCell id="KG4UsnsVIqzl79UaUX_7-24" value="item(adulto,criança)" style="edgeLabel;html=1;align=center;verticalAlign=middle;resizable=0;points=[];" vertex="1" connectable="0" parent="KG4UsnsVIqzl79UaUX_7-22">
          <mxGeometry x="-0.0521" y="3" relative="1" as="geometry">
            <mxPoint as="offset" />
          </mxGeometry>
        </mxCell>
        <mxCell id="KG4UsnsVIqzl79UaUX_7-25" value="" style="endArrow=classic;html=1;rounded=0;" edge="1" parent="1">
          <mxGeometry width="50" height="50" relative="1" as="geometry">
            <mxPoint x="665" y="630" as="sourcePoint" />
            <mxPoint x="270" y="630" as="targetPoint" />
          </mxGeometry>
        </mxCell>
        <mxCell id="KG4UsnsVIqzl79UaUX_7-28" value="sysout(valores)" style="edgeLabel;html=1;align=center;verticalAlign=middle;resizable=0;points=[];" vertex="1" connectable="0" parent="KG4UsnsVIqzl79UaUX_7-25">
          <mxGeometry x="0.3468" y="-3" relative="1" as="geometry">
            <mxPoint as="offset" />
          </mxGeometry>
        </mxCell>
        <mxCell id="KG4UsnsVIqzl79UaUX_7-26" value="" style="shape=umlDestroy;whiteSpace=wrap;html=1;strokeWidth=3;targetShapes=umlLifeline;" vertex="1" parent="1">
          <mxGeometry x="459" y="740" width="30" height="30" as="geometry" />
        </mxCell>
      </root>
    </mxGraphModel>
  </diagram>
</mxfile>
